<svg width="28" height="28" viewBox="0 0 28 28" fill="none" xmlns="http://www.w3.org/2000/svg">
<circle cx="13.6986" cy="14.2191" r="13.6986" transform="rotate(90 13.6986 14.2191)" fill="#FFB400"/>
<path d="M13.6986 7.56006C15.5079 7.56006 15.7336 7.56672 16.4435 7.60001C17.1527 7.63331 17.6354 7.74451 18.0603 7.90966C18.4998 8.0788 18.87 8.30787 19.2403 8.67745C19.5789 9.01033 19.8409 9.413 20.0081 9.85743C20.1725 10.2816 20.2844 10.7651 20.3177 11.4743C20.349 12.1841 20.3577 12.4098 20.3577 14.2191C20.3577 16.0284 20.351 16.2541 20.3177 16.964C20.2844 17.6732 20.1725 18.1559 20.0081 18.5808C19.8414 19.0255 19.5793 19.4282 19.2403 19.7608C18.9073 20.0993 18.5047 20.3613 18.0603 20.5286C17.6361 20.693 17.1527 20.8049 16.4435 20.8382C15.7336 20.8695 15.5079 20.8782 13.6986 20.8782C11.8893 20.8782 11.6636 20.8715 10.9537 20.8382C10.2446 20.8049 9.76177 20.693 9.33693 20.5286C8.89232 20.3617 8.48958 20.0997 8.15694 19.7608C7.81827 19.428 7.55625 19.0253 7.38915 18.5808C7.22401 18.1566 7.1128 17.6732 7.07951 16.964C7.04821 16.2541 7.03955 16.0284 7.03955 14.2191C7.03955 12.4098 7.04621 12.1841 7.07951 11.4743C7.1128 10.7644 7.22401 10.2823 7.38915 9.85743C7.55578 9.41273 7.81786 9.00995 8.15694 8.67745C8.48967 8.33866 8.89239 8.07662 9.33693 7.90966C9.76177 7.74451 10.2439 7.63331 10.9537 7.60001C11.6636 7.56872 11.8893 7.56006 13.6986 7.56006ZM13.6986 10.8896C12.8156 10.8896 11.9687 11.2404 11.3443 11.8648C10.7199 12.4892 10.3691 13.3361 10.3691 14.2191C10.3691 15.1022 10.7199 15.949 11.3443 16.5734C11.9687 17.1979 12.8156 17.5486 13.6986 17.5486C14.5817 17.5486 15.4285 17.1979 16.0529 16.5734C16.6773 15.949 17.0281 15.1022 17.0281 14.2191C17.0281 13.3361 16.6773 12.4892 16.0529 11.8648C15.4285 11.2404 14.5817 10.8896 13.6986 10.8896ZM18.027 10.7231C18.027 10.5023 17.9393 10.2906 17.7832 10.1345C17.6271 9.97843 17.4154 9.89073 17.1946 9.89073C16.9738 9.89073 16.7621 9.97843 16.606 10.1345C16.4499 10.2906 16.3622 10.5023 16.3622 10.7231C16.3622 10.9439 16.4499 11.1556 16.606 11.3117C16.7621 11.4678 16.9738 11.5555 17.1946 11.5555C17.4154 11.5555 17.6271 11.4678 17.7832 11.3117C17.9393 11.1556 18.027 10.9439 18.027 10.7231ZM13.6986 12.2214C14.2284 12.2214 14.7366 12.4319 15.1112 12.8065C15.4859 13.1812 15.6963 13.6893 15.6963 14.2191C15.6963 14.7489 15.4859 15.2571 15.1112 15.6317C14.7366 16.0064 14.2284 16.2168 13.6986 16.2168C13.1688 16.2168 12.6607 16.0064 12.286 15.6317C11.9114 15.2571 11.7009 14.7489 11.7009 14.2191C11.7009 13.6893 11.9114 13.1812 12.286 12.8065C12.6607 12.4319 13.1688 12.2214 13.6986 12.2214Z" fill="#2B2B2B"/>
</svg>
