<svg width="28" height="28" viewBox="0 0 28 28" fill="none" xmlns="http://www.w3.org/2000/svg">
<circle cx="13.6986" cy="13.7807" r="13.6986" transform="rotate(90 13.6986 13.7807)" fill="#FFB400"/>
<path d="M20.0533 10.117C20.3577 11.3037 20.3577 13.7809 20.3577 13.7809C20.3577 13.7809 20.3577 16.258 20.0533 17.4447C19.8842 18.1006 19.3894 18.6167 18.7628 18.7911C17.6248 19.1081 13.6986 19.1081 13.6986 19.1081C13.6986 19.1081 9.77443 19.1081 8.63439 18.7911C8.00511 18.614 7.51101 18.0986 7.34387 17.4447C7.03955 16.258 7.03955 13.7809 7.03955 13.7809C7.03955 13.7809 7.03955 11.3037 7.34387 10.117C7.51301 9.46113 8.00778 8.94505 8.63439 8.77058C9.77443 8.45361 13.6986 8.45361 13.6986 8.45361C13.6986 8.45361 17.6248 8.45361 18.7628 8.77058C19.3921 8.94772 19.8862 9.46313 20.0533 10.117ZM12.3668 16.1115L16.3622 13.7809L12.3668 11.4502V16.1115Z" fill="#2B2B2B"/>
</svg>
