<svg width="28" height="28" viewBox="0 0 28 28" fill="none" xmlns="http://www.w3.org/2000/svg">
<circle cx="13.6986" cy="14.2602" r="13.6986" transform="rotate(90 13.6986 14.2602)" fill="#FFB400"/>
<path d="M10.3291 9.59859C10.329 9.95181 10.1885 10.2905 9.9386 10.5401C9.68871 10.7898 9.34989 10.9299 8.99667 10.9297C8.64345 10.9296 8.30477 10.7891 8.05513 10.5392C7.8055 10.2893 7.66535 9.95048 7.66553 9.59726C7.6657 9.24404 7.80619 8.90536 8.05608 8.65572C8.30596 8.40608 8.64479 8.26594 8.998 8.26611C9.35122 8.26629 9.6899 8.40677 9.93954 8.65666C10.1892 8.90655 10.3293 9.24537 10.3291 9.59859ZM10.3691 11.9159H7.70548V20.2531H10.3691V11.9159ZM14.5776 11.9159H11.9273V20.2531H14.551V15.8781C14.551 13.4409 17.7274 13.2145 17.7274 15.8781V20.2531H20.3577V14.9724C20.3577 10.8638 15.6564 11.017 14.551 13.0347L14.5776 11.9159Z" fill="#2B2B2B"/>
</svg>
