<svg width="1440" height="110" viewBox="0 0 1440 110" fill="none" xmlns="http://www.w3.org/2000/svg">
<rect width="1440" height="110" fill="#FAFAFA"/>
<path d="M650.261 60H657.143V58.8281H652.072V58.7429L654.522 56.1222C656.397 54.114 656.951 53.1765 656.951 51.9673C656.951 50.2841 655.587 48.9418 653.67 48.9418C651.757 48.9418 650.303 50.2415 650.303 52.1591H651.56C651.56 50.918 652.365 50.0923 653.627 50.0923C654.81 50.0923 655.715 50.8168 655.715 51.9673C655.715 52.9741 655.124 53.7198 653.861 55.0994L650.261 59.0412V60ZM662.901 60.1491C665.309 60.1491 666.693 58.109 666.693 54.5455C666.693 51.0085 665.287 48.9418 662.901 48.9418C660.515 48.9418 659.108 51.0085 659.108 54.5455C659.108 58.109 660.493 60.1491 662.901 60.1491ZM662.901 58.9773C661.314 58.9773 660.387 57.3846 660.387 54.5455C660.387 51.7116 661.324 50.0923 662.901 50.0923C664.478 50.0923 665.415 51.7116 665.415 54.5455C665.415 57.3846 664.488 58.9773 662.901 58.9773ZM668.718 60H675.6V58.8281H670.529V58.7429L672.979 56.1222C674.854 54.114 675.408 53.1765 675.408 51.9673C675.408 50.2841 674.044 48.9418 672.127 48.9418C670.214 48.9418 668.76 50.2415 668.76 52.1591H670.017C670.017 50.918 670.822 50.0923 672.084 50.0923C673.267 50.0923 674.172 50.8168 674.172 51.9673C674.172 52.9741 673.581 53.7198 672.318 55.0994L668.718 59.0412V60ZM681.635 49.0909H680.314L677.587 50.902V52.2443L680.25 50.4759H680.314V60H681.635V49.0909ZM689.63 60L690.728 56.9105H695.138L696.235 60H697.62L693.615 49.0909H692.251L688.245 60H689.63ZM691.143 55.7386L692.89 50.8168H692.975L694.723 55.7386H691.143ZM700.406 49.0909H699.149V60H700.406V49.0909ZM703.966 49.0909H702.709V60H703.966V49.0909ZM710.657 60H711.978V55.7386H714.365C714.461 55.7386 714.551 55.7386 714.642 55.7333L716.943 60H718.477L716.011 55.4936C717.401 55.0195 718.051 53.8849 718.051 52.4361C718.051 50.5078 716.9 49.0909 714.344 49.0909H710.657V60ZM711.978 54.5455V50.2628H714.301C716.069 50.2628 716.751 51.1257 716.751 52.4361C716.751 53.7464 716.069 54.5455 714.322 54.5455H711.978ZM720.082 60H721.339V51.8182H720.082V60ZM720.721 50.4545C721.211 50.4545 721.616 50.071 721.616 49.6023C721.616 49.1335 721.211 48.75 720.721 48.75C720.231 48.75 719.826 49.1335 719.826 49.6023C719.826 50.071 720.231 50.4545 720.721 50.4545ZM726.944 63.2386C728.904 63.2386 730.481 62.3438 730.481 60.2344V51.8182H729.266V53.1179H729.138C728.861 52.6918 728.35 51.7116 726.752 51.7116C724.685 51.7116 723.258 53.3523 723.258 55.8665C723.258 58.4233 724.749 59.8722 726.731 59.8722C728.329 59.8722 728.84 58.9347 729.117 58.4872H729.224V60.1491C729.224 61.5128 728.265 62.1307 726.944 62.1307C725.458 62.1307 724.936 61.3477 724.6 60.8949L723.599 61.598C724.11 62.4556 725.117 63.2386 726.944 63.2386ZM726.901 58.7429C725.325 58.7429 724.515 57.5497 724.515 55.8452C724.515 54.1832 725.303 52.8409 726.901 52.8409C728.435 52.8409 729.245 54.0767 729.245 55.8452C729.245 57.6562 728.414 58.7429 726.901 58.7429ZM734.039 55.0781C734.039 53.6506 734.95 52.8409 736.191 52.8409C737.374 52.8409 738.087 53.5866 738.087 54.8864V60H739.344V54.8011C739.344 52.6971 738.226 51.7116 736.553 51.7116C735.264 51.7116 734.529 52.2496 734.146 53.0966H734.039V49.0909H732.782V60H734.039V55.0781ZM745.202 51.8182H743.455V49.858H742.198V51.8182H740.962V52.8835H742.198V57.9972C742.198 59.4247 743.349 60.1065 744.414 60.1065C744.883 60.1065 745.181 60.0213 745.352 59.9574L745.096 58.8281C744.989 58.8494 744.819 58.892 744.542 58.892C743.988 58.892 743.455 58.7216 743.455 57.6562V52.8835H745.202V51.8182ZM752.889 53.6506C752.495 52.4893 751.61 51.7116 749.991 51.7116C748.265 51.7116 746.987 52.6918 746.987 54.0767C746.987 55.206 747.658 55.9624 749.16 56.3139L750.524 56.6335C751.349 56.8253 751.738 57.2195 751.738 57.7841C751.738 58.4872 750.993 59.0625 749.821 59.0625C748.793 59.0625 748.148 58.6204 747.924 57.7415L746.731 58.0398C747.024 59.43 748.169 60.1705 749.842 60.1705C751.744 60.1705 753.038 59.1317 753.038 57.7202C753.038 56.5803 752.324 55.8612 750.865 55.5043L749.65 55.206C748.681 54.9663 748.244 54.6413 748.244 54.0128C748.244 53.3097 748.99 52.7983 749.991 52.7983C751.088 52.7983 751.541 53.4055 751.76 53.9702L752.889 53.6506ZM759.32 60H760.641V55.7386H763.027C763.123 55.7386 763.213 55.7386 763.304 55.7333L765.605 60H767.139L764.673 55.4936C766.063 55.0195 766.713 53.8849 766.713 52.4361C766.713 50.5078 765.562 49.0909 763.006 49.0909H759.32V60ZM760.641 54.5455V50.2628H762.963C764.731 50.2628 765.413 51.1257 765.413 52.4361C765.413 53.7464 764.731 54.5455 762.984 54.5455H760.641ZM772.174 60.1705C773.836 60.1705 775.051 59.3395 775.434 58.1037L774.22 57.7628C773.9 58.6151 773.16 59.0412 772.174 59.0412C770.699 59.0412 769.681 58.0877 769.623 56.3352H775.562V55.8026C775.562 52.7557 773.751 51.7116 772.046 51.7116C769.83 51.7116 768.36 53.4588 768.36 55.973C768.36 58.4872 769.809 60.1705 772.174 60.1705ZM769.623 55.2486C769.708 53.9755 770.608 52.8409 772.046 52.8409C773.41 52.8409 774.284 53.8636 774.284 55.2486H769.623ZM783.27 53.6506C782.876 52.4893 781.991 51.7116 780.372 51.7116C778.646 51.7116 777.368 52.6918 777.368 54.0767C777.368 55.206 778.039 55.9624 779.541 56.3139L780.905 56.6335C781.73 56.8253 782.119 57.2195 782.119 57.7841C782.119 58.4872 781.373 59.0625 780.202 59.0625C779.174 59.0625 778.529 58.6204 778.305 57.7415L777.112 58.0398C777.405 59.43 778.55 60.1705 780.223 60.1705C782.125 60.1705 783.419 59.1317 783.419 57.7202C783.419 56.5803 782.705 55.8612 781.246 55.5043L780.031 55.206C779.062 54.9663 778.625 54.6413 778.625 54.0128C778.625 53.3097 779.371 52.7983 780.372 52.7983C781.469 52.7983 781.922 53.4055 782.14 53.9702L783.27 53.6506ZM788.742 60.1705C790.404 60.1705 791.618 59.3395 792.002 58.1037L790.787 57.7628C790.467 58.6151 789.727 59.0412 788.742 59.0412C787.266 59.0412 786.249 58.0877 786.19 56.3352H792.129V55.8026C792.129 52.7557 790.318 51.7116 788.614 51.7116C786.398 51.7116 784.928 53.4588 784.928 55.973C784.928 58.4872 786.377 60.1705 788.742 60.1705ZM786.19 55.2486C786.275 53.9755 787.176 52.8409 788.614 52.8409C789.977 52.8409 790.851 53.8636 790.851 55.2486H786.19ZM794.042 60H795.299V54.8224C795.299 53.7145 796.172 52.9048 797.366 52.9048C797.701 52.9048 798.047 52.9688 798.133 52.9901V51.7116C797.989 51.701 797.659 51.6903 797.472 51.6903C796.492 51.6903 795.64 52.2443 795.341 53.054H795.256V51.8182H794.042V60ZM806.313 51.8182H804.949L802.691 58.3381H802.606L800.347 51.8182H798.984L802.009 60H803.288L806.313 51.8182ZM811.403 60.1705C813.065 60.1705 814.279 59.3395 814.663 58.1037L813.448 57.7628C813.129 58.6151 812.388 59.0412 811.403 59.0412C809.927 59.0412 808.91 58.0877 808.851 56.3352H814.791V55.8026C814.791 52.7557 812.979 51.7116 811.275 51.7116C809.059 51.7116 807.589 53.4588 807.589 55.973C807.589 58.4872 809.038 60.1705 811.403 60.1705ZM808.851 55.2486C808.936 53.9755 809.837 52.8409 811.275 52.8409C812.639 52.8409 813.512 53.8636 813.512 55.2486H808.851ZM819.792 60.1705C821.369 60.1705 821.902 59.1903 822.179 58.7429H822.328V60H823.542V49.0909H822.285V53.1179H822.179C821.902 52.6918 821.412 51.7116 819.814 51.7116C817.747 51.7116 816.319 53.3523 816.319 55.9304C816.319 58.5298 817.747 60.1705 819.792 60.1705ZM819.963 59.0412C818.386 59.0412 817.576 57.6562 817.576 55.9091C817.576 54.1832 818.365 52.8409 819.963 52.8409C821.497 52.8409 822.307 54.0767 822.307 55.9091C822.307 57.7628 821.476 59.0412 819.963 59.0412Z" fill="#2B2B2B"/>
<path d="M591.5 41.75C599.09 41.75 605.25 47.91 605.25 55.5C605.25 63.09 599.09 69.25 591.5 69.25C583.91 69.25 577.75 63.09 577.75 55.5C577.75 47.91 583.91 41.75 591.5 41.75ZM591.5 44.5C585.422 44.5 580.5 49.4225 580.5 55.5C580.5 61.5775 585.422 66.5 591.5 66.5C597.577 66.5 602.5 61.5775 602.5 55.5C602.5 49.4225 597.577 44.5 591.5 44.5ZM591.5 48.625C594.002 48.625 596.193 49.9629 597.396 51.9635L595.039 53.3784C594.668 52.76 594.142 52.2496 593.512 51.8981C592.883 51.5467 592.172 51.3664 591.451 51.3753C590.73 51.3842 590.023 51.582 589.403 51.949C588.782 52.3159 588.268 52.8391 587.913 53.4665C587.557 54.0939 587.372 54.8036 587.377 55.5247C587.381 56.2458 587.574 56.9531 587.937 57.5762C588.3 58.1993 588.82 58.7164 589.445 59.0759C590.07 59.4354 590.779 59.6247 591.5 59.625C592.212 59.6255 592.913 59.4413 593.533 59.0904C594.153 58.7395 594.671 58.234 595.038 57.623L597.396 59.0365C596.623 60.3271 595.449 61.3286 594.052 61.8874C592.655 62.4461 591.114 62.5313 589.664 62.1299C588.215 61.7284 586.937 60.8625 586.026 59.6649C585.116 58.4674 584.624 57.0042 584.625 55.5C584.625 51.705 587.705 48.625 591.5 48.625Z" fill="#A5A6F6"/>
</svg>
